HIERARCHY
ROOT Hips
{
  OFFSET 84.1119 83.2092 16.8978
  CHANNELS 6 Xposition Yposition Zposition Zrotation Xrotation Yrotation
  JOINT spine
  {
    OFFSET 0 6.84637 0.3937
    CHANNELS 3 Zrotation Xrotation Yrotation
    JOINT spine1
    {
      OFFSET 0 9.49621 0
      CHANNELS 3 Zrotation Xrotation Yrotation
      JOINT spine2
      {
        OFFSET 0 9.09909 0
        CHANNELS 3 Zrotation Xrotation Yrotation
        JOINT Neck
        {
          OFFSET 0 23.3612 1.11378
          CHANNELS 3 Zrotation Xrotation Yrotation
          JOINT Head
          {
            OFFSET 0 7.05802 0
            CHANNELS 3 Zrotation Xrotation Yrotation
            End Site
            {
              OFFSET 0 17.0844 -5.63419
            }
          }
        }
        JOINT RightShoulder
        {
          OFFSET -3.83136 9.82631 -0.533491
          CHANNELS 3 Zrotation Xrotation Yrotation
          JOINT RightArm
          {
            OFFSET 0 12.8881 0
            CHANNELS 3 Zrotation Xrotation Yrotation
            JOINT RightArmRoll
            {
              OFFSET 0 6.50617 0
              CHANNELS 3 Zrotation Xrotation Yrotation
              JOINT RightForeArm
              {
                OFFSET 0 18.9501 0
                CHANNELS 3 Zrotation Xrotation Yrotation
                JOINT RightForeArmRoll
                {
                  OFFSET 0 7.30092 0
                  CHANNELS 3 Zrotation Xrotation Yrotation
                  JOINT RightHand
                  {
                    OFFSET 0 14.6514 0
                    CHANNELS 3 Zrotation Xrotation Yrotation
                    End Site
                    {
                      OFFSET 0 0 0
                    }
                  }
                }
              }
            }
          }
        }
        JOINT LeftShoulder
        {
          OFFSET 3.83136 9.82631 -0.533491
          CHANNELS 3 Zrotation Xrotation Yrotation
          JOINT LeftArm
          {
            OFFSET 0 12.8881 0
            CHANNELS 3 Zrotation Xrotation Yrotation
            JOINT LeftArmRoll
            {
              OFFSET 0 6.50617 0
              CHANNELS 3 Zrotation Xrotation Yrotation
              JOINT LeftForeArm
              {
                OFFSET 0 18.9501 0
                CHANNELS 3 Zrotation Xrotation Yrotation
                JOINT LeftForeArmRoll
                {
                  OFFSET 0 7.30092 0
                  CHANNELS 3 Zrotation Xrotation Yrotation
                  JOINT LeftHand
                  {
                    OFFSET 0 14.6514 0
                    CHANNELS 3 Zrotation Xrotation Yrotation
                    End Site
                    {
                      OFFSET 0 0 0
                    }
                  }
                }
              }
            }
          }
        }
      }
    }
  }
  JOINT RightUpLeg
  {
    OFFSET -6.06837 -1.11278 -0.933477
    CHANNELS 3 Zrotation Xrotation Yrotation
    JOINT RightUpLegRoll
    {
      OFFSET 0 17.1796 0
      CHANNELS 3 Zrotation Xrotation Yrotation
      JOINT RightLeg
      {
        OFFSET 0 -21.2743 0
        CHANNELS 3 Zrotation Xrotation Yrotation
        JOINT RightLegRoll
        {
          OFFSET 0 21.3439 0
          CHANNELS 3 Zrotation Xrotation Yrotation
          JOINT RightFoot
          {
            OFFSET 0 17.7652 0
            CHANNELS 3 Zrotation Xrotation Yrotation
            JOINT RightToeBase
            {
              OFFSET 0 14.8508 0
              CHANNELS 3 Zrotation Xrotation Yrotation
              End Site
              {
                OFFSET 0.0062947 7.19214 -0.829004
              }
            }
          }
        }
      }
    }
  }
  JOINT LeftUpLeg
  {
    OFFSET 6.06837 -1.11278 -0.933477
    CHANNELS 3 Zrotation Xrotation Yrotation
    JOINT LeftUpLegRoll
    {
      OFFSET 0 17.1797 0
      CHANNELS 3 Zrotation Xrotation Yrotation
      JOINT LeftLeg
      {
        OFFSET 0 21.2742 0
        CHANNELS 3 Zrotation Xrotation Yrotation
        JOINT LeftLegRoll
        {
          OFFSET 0 21.5412 0
          CHANNELS 3 Zrotation Xrotation Yrotation
          JOINT LeftFoot
          {
            OFFSET 0 17.5679 0
            CHANNELS 3 Zrotation Xrotation Yrotation
            JOINT LeftToeBase
            {
              OFFSET 0 14.8508 0
              CHANNELS 3 Zrotation Xrotation Yrotation
              End Site
              {
                OFFSET -0.0282102 7.19213 -0.829005
              }
            }
          }
        }
      }
    }
  }
}
MOTION
Frames: 5
Frame Time: 0.00208333
57.5135 90.9917 -1.19066 0.604598 -1.3343 -6.2085 0.212598 -0.685322 0.202441 0.427408 2.63284 0.356894 0.423552 4.27786 0.349967 -16.9331 40.5015 17.464 -1.75033 -4.20798 8.28817 62.9333 12.6748 6.6769 108.912 18.8593 -38.1689 -4.59575e-006 -2.85153e-006 -2.24685e-005 -4.9957 81.6548 1.03916 8.56279e-006 -1.08558e-005 -3 8.03014 -4.95095 0.697562 -63.7564 -3.612 2.59815 -116.296 10.7215 65.5636 -2.8245e-007 6.60995e-007 1.53717e-005 156.245 56.0159 -120.911 5.1259e-007 -2.67911e-006 2.99999 -8.03127 -4.95065 -0.697039 176.562 7.07877 1.49185 180 7.01556e-015 178.964 176.952 13.834 179.873 4.22802e-006 -2.08559e-006 0.175891 -18.6029 67.9916 19.529 8.12738 25.2332 -3.48386 -174.442 10.8045 -2.45751 4.54188e-006 -4.6773e-006 -1.17357 -2.98464 -21.134 0.189435 3.05901e-007 -6.6868e-007 -0.299006 17.8309 66.9301 -18.6913 -8.13649 25.2327 3.48774 
57.4648 90.9879 -1.19891 0.627346 -1.33158 -6.19321 0.211677 -0.684683 0.202346 0.425475 2.63416 0.357903 0.421613 4.27918 0.351009 -16.8598 40.4998 17.5046 -1.86466 -4.32992 8.34961 62.9012 12.6249 6.65714 109.033 18.9416 -38.3742 -4.59575e-006 -2.85153e-006 -2.24685e-005 -5.81136 81.8342 1.74186 8.56279e-006 -1.08558e-005 -3 8.03014 -4.95095 0.697562 -63.8173 -3.53758 2.56138 -116.036 10.6812 65.4075 -2.8245e-007 6.60995e-007 1.53717e-005 156.323 55.9017 -120.891 5.1259e-007 -2.67911e-006 2.99999 -8.03127 -4.95065 -0.697039 176.568 7.07179 1.48731 180 7.01556e-015 178.964 176.951 13.8098 179.873 4.22802e-006 -2.08559e-006 0.17573 -18.6019 67.9906 19.528 8.12738 25.2332 -3.48386 -174.403 11.0058 -2.51983 4.54188e-006 -4.6773e-006 -1.17435 -3.00138 -21.4452 0.188896 3.05901e-007 -6.6868e-007 -0.305004 17.8342 66.9354 -18.6951 -8.13649 25.2327 3.48774 
57.4152 91.0026 -1.20598 0.649895 -1.32892 -6.17781 0.210778 -0.684056 0.202212 0.42357 2.63548 0.358855 0.419704 4.28051 0.351993 -16.7861 40.4974 17.5451 -1.97886 -4.45097 8.41143 62.8683 12.5745 6.63727 109.156 19.0204 -38.5777 -4.59575e-006 -2.85153e-006 -2.24685e-005 -6.64683 82.0118 2.46506 8.56279e-006 -1.08558e-005 -3 8.03014 -4.95095 0.697562 -63.8785 -3.46315 2.52459 -115.765 10.6316 65.2555 -2.8245e-007 6.60995e-007 1.53717e-005 156.4 55.7808 -120.861 5.1259e-007 -2.67911e-006 2.99999 -8.03127 -4.95065 -0.697039 176.575 7.06511 1.48267 180 7.01556e-015 178.964 176.95 13.7867 179.873 4.22802e-006 -2.08559e-006 0.175606 -18.6015 67.9902 19.5275 8.12738 25.2332 -3.48386 -174.364 11.2048 -2.5814 4.54188e-006 -4.6773e-006 -1.17514 -3.01779 -21.7541 0.188594 3.05901e-007 -6.6868e-007 -0.310979 17.8372 66.9405 -18.6987 -8.13649 25.2327 3.48774 
57.37 90.9985 -1.21418 0.672303 -1.32631 -6.16232 0.209893 -0.683437 0.20205 0.421684 2.63681 0.359766 0.417814 4.28183 0.352937 -16.7123 40.4944 17.5855 -2.09288 -4.57139 8.47352 62.8349 12.5236 6.61732 109.282 19.0967 -38.7798 -4.59575e-006 -2.85153e-006 -2.24685e-005 -7.50673 82.1876 3.21307 8.56279e-006 -1.08558e-005 -3 8.03014 -4.95095 0.697562 -63.9398 -3.38872 2.48779 -115.488 10.5751 65.1066 -2.8245e-007 6.60995e-007 1.53717e-005 156.476 55.6552 -120.822 5.1259e-007 -2.67911e-006 2.99999 -8.03127 -4.95065 -0.697039 176.581 7.05865 1.47797 180 7.01556e-015 178.964 176.949 13.7645 179.874 4.22802e-006 -2.08559e-006 0.175508 -18.6013 67.9903 19.5273 8.12738 25.2332 -3.48386 -174.325 11.4023 -2.64248 4.54188e-006 -4.6773e-006 -1.17595 -3.03397 -22.0615 0.188461 3.05901e-007 -6.6868e-007 -0.316938 17.84 66.9454 -18.7022 -8.13649 25.2327 3.48774 
57.3287 91.0119 -1.2172 0.69463 -1.32373 -6.14678 0.209018 -0.682822 0.201873 0.41981 2.63813 0.360654 0.415937 4.28316 0.353857 -16.6383 40.4912 17.6259 -2.2067 -4.69142 8.5358 62.8012 12.4725 6.59734 109.408 19.1712 -38.9813 -4.59575e-006 -2.85153e-006 -2.24685e-005 -8.3961 82.3618 3.99064 8.56279e-006 -1.08558e-005 -3 8.03014 -4.95095 0.697562 -64.0012 -3.31427 2.451 -115.206 10.5143 64.9594 -2.8245e-007 6.60995e-007 1.53717e-005 156.552 55.5269 -120.78 5.1259e-007 -2.67911e-006 2.99999 -8.03127 -4.95065 -0.697039 176.588 7.0523 1.47323 180 7.01556e-015 178.964 176.948 13.7428 179.874 4.22802e-006 -2.08559e-006 0.175425 -18.6013 67.9906 19.5274 8.12738 25.2332 -3.48386 -174.286 11.5988 -2.70333 4.54188e-006 -4.6773e-006 -1.17677 -3.05001 -22.3681 0.188426 3.05901e-007 -6.6868e-007 -0.322888 17.8427 66.9503 -18.7056 -8.13649 25.2327 3.48774 
